<svg width="24" height="20" viewBox="0 0 24 20" fill="none" xmlns="http://www.w3.org/2000/svg">
<path d="M4.72308 14V14.4579C4.72308 15.3662 5.83624 15.804 6.45507 15.1392L8.14953 13.3187C8.3387 13.1154 8.60386 13 8.88152 13H15.9231C17.0276 13 17.9231 12.1046 17.9231 11V3C17.9231 1.89543 17.0276 1 15.9231 1H3C1.89543 1 1 1.89543 1 3V11C1 12.1046 1.89543 13 3 13H3.72308C4.27536 13 4.72308 13.4477 4.72308 14Z" fill="white" stroke="black" stroke-linecap="round"/>
<path d="M9.46143 14.6668V14.0002C9.46143 13.4479 9.90914 13.0002 10.4614 13.0002H15.923C17.0275 13.0002 17.923 12.1047 17.923 11.0002V8.3335C17.923 7.78121 18.3707 7.3335 18.923 7.3335H20.9999C22.1045 7.3335 22.9999 8.22892 22.9999 9.33349V14.6668C22.9999 15.7714 22.1045 16.6668 20.9999 16.6668H20.4885C20.0062 16.6668 19.6153 17.0578 19.6153 17.5401C19.6153 18.3623 18.5826 18.7289 18.0642 18.0907L17.2077 17.0363C17.0178 16.8026 16.7327 16.6668 16.4315 16.6668H11.4614C10.3569 16.6668 9.46143 15.7714 9.46143 14.6668Z" fill="white" stroke="black" stroke-linecap="round"/>
<path d="M5.91553 6.3335C5.91553 6.60247 5.69201 6.8335 5.40015 6.8335C5.10829 6.8335 4.88477 6.60247 4.88477 6.3335C4.88477 6.06452 5.10829 5.8335 5.40015 5.8335C5.69201 5.8335 5.91553 6.06452 5.91553 6.3335Z" fill="white" stroke="black"/>
<path d="M5.91553 6.3335C5.91553 6.60247 5.69201 6.8335 5.40015 6.8335C5.10829 6.8335 4.88477 6.60247 4.88477 6.3335C4.88477 6.06452 5.10829 5.8335 5.40015 5.8335C5.69201 5.8335 5.91553 6.06452 5.91553 6.3335Z" fill="white" stroke="black"/>
<path d="M9.97706 6.3335C9.97706 6.60247 9.75354 6.8335 9.46167 6.8335C9.16981 6.8335 8.94629 6.60247 8.94629 6.3335C8.94629 6.06452 9.16981 5.8335 9.46167 5.8335C9.75354 5.8335 9.97706 6.06452 9.97706 6.3335Z" fill="white" stroke="black"/>
<path d="M14.0386 6.3335C14.0386 6.60247 13.8151 6.8335 13.5232 6.8335C13.2313 6.8335 13.0078 6.60247 13.0078 6.3335C13.0078 6.06452 13.2313 5.8335 13.5232 5.8335C13.8151 5.8335 14.0386 6.06452 14.0386 6.3335Z" fill="white" stroke="black"/>
</svg>
