<svg width="30" height="30" viewBox="0 0 30 30" fill="none" xmlns="http://www.w3.org/2000/svg">
<g clip-path="url(#clip0_1017_5550)">
<rect width="30" height="30" fill="white"/>
<circle cx="15" cy="15" r="15" fill="black"/>
<path d="M19.8955 7.5C19.8955 10.2659 17.6758 12.5 14.9477 12.5C12.2197 12.5 10 10.2659 10 7.5C10 4.73406 12.2197 2.5 14.9477 2.5C17.6758 2.5 19.8955 4.73406 19.8955 7.5Z" fill="white" stroke="black"/>
<mask id="path-3-inside-1_1017_5550" fill="white">
<path fill-rule="evenodd" clip-rule="evenodd" d="M4 24H27C25.9838 17.5251 21.2215 12.625 15.5 12.625C9.77847 12.625 5.01614 17.5251 4 24Z"/>
</mask>
<path fill-rule="evenodd" clip-rule="evenodd" d="M4 24H27C25.9838 17.5251 21.2215 12.625 15.5 12.625C9.77847 12.625 5.01614 17.5251 4 24Z" fill="white"/>
<path d="M4 24L3.01209 23.845L2.83082 25H4V24ZM27 24V25H28.1691L27.9879 23.845L27 24ZM4 25H27V23H4V25ZM15.5 13.625C20.5982 13.625 25.05 18.025 26.0121 24.155L27.9879 23.845C26.9176 17.0253 21.8448 11.625 15.5 11.625V13.625ZM4.98791 24.155C5.94994 18.025 10.4017 13.625 15.5 13.625V11.625C9.1552 11.625 4.08235 17.0253 3.01209 23.845L4.98791 24.155Z" fill="black" mask="url(#path-3-inside-1_1017_5550)"/>
</g>
<defs>
<clipPath id="clip0_1017_5550">
<rect width="30" height="30" fill="white"/>
</clipPath>
</defs>
</svg>
