<svg width="25" height="25" viewBox="0 0 25 25" fill="none" xmlns="http://www.w3.org/2000/svg">
<rect width="25" height="25" fill="white"/>
<path d="M16.8955 6.5C16.8955 9.26594 14.6758 11.5 11.9477 11.5C9.21966 11.5 7 9.26594 7 6.5C7 3.73406 9.21966 1.5 11.9477 1.5C14.6758 1.5 16.8955 3.73406 16.8955 6.5Z" fill="white" stroke="black"/>
<mask id="path-2-inside-1_1017_5547" fill="white">
<path fill-rule="evenodd" clip-rule="evenodd" d="M1 23H24C22.9838 16.5251 18.2215 11.625 12.5 11.625C6.77847 11.625 2.01614 16.5251 1 23Z"/>
</mask>
<path fill-rule="evenodd" clip-rule="evenodd" d="M1 23H24C22.9838 16.5251 18.2215 11.625 12.5 11.625C6.77847 11.625 2.01614 16.5251 1 23Z" fill="white"/>
<path d="M1 23L0.0120916 22.845L-0.169176 24H1V23ZM24 23V24H25.1691L24.9879 22.845L24 23ZM1 24H24V22H1V24ZM12.5 12.625C17.5982 12.625 22.05 17.025 23.0121 23.155L24.9879 22.845C23.9176 16.0253 18.8448 10.625 12.5 10.625V12.625ZM1.98791 23.155C2.94994 17.025 7.40173 12.625 12.5 12.625V10.625C6.1552 10.625 1.08235 16.0253 0.0120916 22.845L1.98791 23.155Z" fill="black" mask="url(#path-2-inside-1_1017_5547)"/>
</svg>
