<svg width="34" height="34" viewBox="0 0 34 34" fill="none" xmlns="http://www.w3.org/2000/svg">
<rect width="34" height="34" fill="white"/>
<path d="M6.5 23V25.4292C6.5 26.3412 7.62089 26.7772 8.23715 26.1049L11.7027 22.3243C11.8922 22.1176 12.1596 22 12.4399 22H24C25.1046 22 26 21.1046 26 20V6C26 4.89543 25.1046 4 24 4H3C1.89543 4 1 4.89543 1 6V20C1 21.1046 1.89543 22 3 22H5.5C6.05228 22 6.5 22.4477 6.5 23Z" stroke="black" stroke-linecap="round"/>
<path d="M13.5 25.5V23C13.5 22.4477 13.9477 22 14.5 22H24C25.1046 22 26 21.1046 26 20V14.5C26 13.9477 26.4477 13.5 27 13.5H31.5C32.6046 13.5 33.5 14.3954 33.5 15.5V25.5C33.5 26.6046 32.6046 27.5 31.5 27.5H29.5C28.9477 27.5 28.5 27.9477 28.5 28.5V29.6492C28.5 30.5945 27.3096 31.0121 26.7191 30.2739L24.8002 27.8753C24.6105 27.6381 24.3232 27.5 24.0194 27.5H15.5C14.3954 27.5 13.5 26.6046 13.5 25.5Z" stroke="black" stroke-linecap="round"/>
<circle cx="7.5" cy="12" r="1" fill="white" stroke="black"/>
<circle cx="7.5" cy="12" r="1" fill="white" stroke="black"/>
<circle cx="13.5" cy="12" r="1" fill="white" stroke="black"/>
<circle cx="19.5" cy="12" r="1" fill="white" stroke="black"/>
<path d="M6.5 23V25.4292C6.5 26.3412 7.62089 26.7772 8.23715 26.1049L11.7027 22.3243C11.8922 22.1176 12.1596 22 12.4399 22H24C25.1046 22 26 21.1046 26 20V6C26 4.89543 25.1046 4 24 4H3C1.89543 4 1 4.89543 1 6V20C1 21.1046 1.89543 22 3 22H5.5C6.05228 22 6.5 22.4477 6.5 23Z" stroke="black" stroke-linecap="round"/>
<path d="M13.5 25.5V23C13.5 22.4477 13.9477 22 14.5 22H24C25.1046 22 26 21.1046 26 20V14.5C26 13.9477 26.4477 13.5 27 13.5H31.5C32.6046 13.5 33.5 14.3954 33.5 15.5V25.5C33.5 26.6046 32.6046 27.5 31.5 27.5H29.5C28.9477 27.5 28.5 27.9477 28.5 28.5V29.6492C28.5 30.5945 27.3096 31.0121 26.7191 30.2739L24.8002 27.8753C24.6105 27.6381 24.3232 27.5 24.0194 27.5H15.5C14.3954 27.5 13.5 26.6046 13.5 25.5Z" stroke="black" stroke-linecap="round"/>
<circle cx="7.5" cy="12" r="1" fill="white" stroke="black"/>
<circle cx="7.5" cy="12" r="1" fill="white" stroke="black"/>
<circle cx="13.5" cy="12" r="1" fill="white" stroke="black"/>
<circle cx="19.5" cy="12" r="1" fill="white" stroke="black"/>
</svg>
