<svg width="15" height="20" viewBox="0 0 15 20" fill="none" xmlns="http://www.w3.org/2000/svg">
<rect x="0.5" y="2.40479" width="14" height="17.0952" rx="0.5" fill="white" stroke="black"/>
<mask id="path-2-inside-1_1016_5391" fill="white">
<ellipse cx="4" cy="6.66661" rx="1" ry="0.952381"/>
</mask>
<ellipse cx="4" cy="6.66661" rx="1" ry="0.952381" fill="#D9D9D9"/>
<path d="M4 6.66661C4 6.65467 4.00283 6.64194 4.00749 6.63144C4.01178 6.62178 4.01614 6.61716 4.01745 6.61591C4.01989 6.61359 4.01588 6.619 4 6.619V8.619C5.05803 8.619 6 7.7903 6 6.66661H4ZM4 6.619C3.98412 6.619 3.98011 6.61359 3.98255 6.61591C3.98386 6.61716 3.98822 6.62178 3.99251 6.63144C3.99717 6.64194 4 6.65467 4 6.66661H2C2 7.7903 2.94197 8.619 4 8.619V6.619ZM4 6.66661C4 6.67856 3.99717 6.69129 3.99251 6.70179C3.98822 6.71145 3.98386 6.71607 3.98255 6.71732C3.98011 6.71964 3.98412 6.71423 4 6.71423V4.71423C2.94197 4.71423 2 5.54293 2 6.66661H4ZM4 6.71423C4.01588 6.71423 4.01989 6.71964 4.01745 6.71732C4.01614 6.71607 4.01178 6.71145 4.00749 6.70179C4.00283 6.69129 4 6.67856 4 6.66661H6C6 5.54293 5.05803 4.71423 4 4.71423V6.71423Z" fill="black" mask="url(#path-2-inside-1_1016_5391)"/>
<mask id="path-4-inside-2_1016_5391" fill="white">
<ellipse cx="4" cy="10.4762" rx="1" ry="0.952381"/>
</mask>
<ellipse cx="4" cy="10.4762" rx="1" ry="0.952381" fill="#D9D9D9"/>
<path d="M4 10.4762C4 10.4642 4.00283 10.4515 4.00749 10.441C4.01178 10.4314 4.01614 10.4267 4.01745 10.4255C4.01989 10.4232 4.01588 10.4286 4 10.4286V12.4286C5.05803 12.4286 6 11.5999 6 10.4762H4ZM4 10.4286C3.98412 10.4286 3.98011 10.4232 3.98255 10.4255C3.98386 10.4267 3.98822 10.4314 3.99251 10.441C3.99717 10.4515 4 10.4642 4 10.4762H2C2 11.5999 2.94197 12.4286 4 12.4286V10.4286ZM4 10.4762C4 10.4881 3.99717 10.5009 3.99251 10.5114C3.98822 10.521 3.98386 10.5256 3.98255 10.5269C3.98011 10.5292 3.98412 10.5238 4 10.5238V8.5238C2.94197 8.5238 2 9.3525 2 10.4762H4ZM4 10.5238C4.01588 10.5238 4.01989 10.5292 4.01745 10.5269C4.01614 10.5256 4.01178 10.521 4.00749 10.5114C4.00283 10.5009 4 10.4881 4 10.4762H6C6 9.3525 5.05803 8.5238 4 8.5238V10.5238Z" fill="black" mask="url(#path-4-inside-2_1016_5391)"/>
<mask id="path-6-inside-3_1016_5391" fill="white">
<ellipse cx="4" cy="14.2858" rx="1" ry="0.952381"/>
</mask>
<ellipse cx="4" cy="14.2858" rx="1" ry="0.952381" fill="#D9D9D9"/>
<path d="M4 14.2858C4 14.2738 4.00283 14.2611 4.00749 14.2506C4.01178 14.2409 4.01614 14.2363 4.01745 14.2351C4.01989 14.2327 4.01588 14.2381 4 14.2381V16.2381C5.05803 16.2381 6 15.4094 6 14.2858H4ZM4 14.2381C3.98412 14.2381 3.98011 14.2327 3.98255 14.2351C3.98386 14.2363 3.98822 14.2409 3.99251 14.2506C3.99717 14.2611 4 14.2738 4 14.2858H2C2 15.4094 2.94197 16.2381 4 16.2381V14.2381ZM4 14.2858C4 14.2977 3.99717 14.3104 3.99251 14.3209C3.98822 14.3306 3.98386 14.3352 3.98255 14.3365C3.98011 14.3388 3.98412 14.3334 4 14.3334V12.3334C2.94197 12.3334 2 13.1621 2 14.2858H4ZM4 14.3334C4.01588 14.3334 4.01989 14.3388 4.01745 14.3365C4.01614 14.3352 4.01178 14.3306 4.00749 14.3209C4.00283 14.3104 4 14.2977 4 14.2858H6C6 13.1621 5.05803 12.3334 4 12.3334V14.3334Z" fill="black" mask="url(#path-6-inside-3_1016_5391)"/>
<rect x="3.5" y="0.5" width="8" height="2.80952" fill="white" stroke="black"/>
<path d="M7 6.66663H12" stroke="black" stroke-linecap="round"/>
<path d="M7 10.4762H12" stroke="black" stroke-linecap="round"/>
<path d="M7 15H12" stroke="black" stroke-linecap="round"/>
</svg>
